<?xml version="1.0" encoding="UTF-8"?>
<!DOCTYPE svg PUBLIC "-//W3C//DTD SVG 1.1//EN" "http://www.w3.org/Graphics/SVG/1.1/DTD/svg11.dtd">
<svg xmlns="http://www.w3.org/2000/svg" version="1.1" width="1387px" height="315px" style="shape-rendering:geometricPrecision; text-rendering:geometricPrecision; image-rendering:optimizeQuality; fill-rule:evenodd; clip-rule:evenodd" xmlns:xlink="http://www.w3.org/1999/xlink">
<g><path style="opacity:0.473" fill="#da202b" d="M 131.5,10.5 C 90.9966,10.1681 50.6632,10.5014 10.5,11.5C 9.95691,11.44 9.62358,11.1067 9.5,10.5C 50.3313,9.16936 90.998,9.16936 131.5,10.5 Z"/></g>
<g><path style="opacity:0.837" fill="#da202b" d="M 149.5,10.5 C 150.946,9.38705 152.613,9.22039 154.5,10C 152.866,10.4935 151.199,10.6602 149.5,10.5 Z"/></g>
<g><path style="opacity:0.415" fill="#db202b" d="M 262.5,11.5 C 261.662,11.8417 261.328,12.5084 261.5,13.5C 260.596,14.209 260.263,15.209 260.5,16.5C 259.069,17.7804 258.402,19.4471 258.5,21.5C 257.596,22.209 257.263,23.209 257.5,24.5C 256.596,25.209 256.263,26.209 256.5,27.5C 255.596,28.209 255.263,29.209 255.5,30.5C 254.596,31.209 254.263,32.209 254.5,33.5C 253.069,34.7804 252.402,36.4471 252.5,38.5C 251.596,39.209 251.263,40.209 251.5,41.5C 250.596,42.209 250.263,43.209 250.5,44.5C 249.596,45.209 249.263,46.209 249.5,47.5C 248.069,48.7804 247.402,50.4471 247.5,52.5C 246.596,53.209 246.263,54.209 246.5,55.5C 245.596,56.209 245.263,57.209 245.5,58.5C 244.596,59.209 244.263,60.209 244.5,61.5C 243.596,62.209 243.263,63.209 243.5,64.5C 242.596,65.209 242.263,66.209 242.5,67.5C 241.069,68.7804 240.402,70.4471 240.5,72.5C 239.596,73.209 239.263,74.209 239.5,75.5C 238.596,76.209 238.263,77.209 238.5,78.5C 237.596,79.209 237.263,80.209 237.5,81.5C 236.596,82.209 236.263,83.209 236.5,84.5C 234.733,86.7916 233.733,89.4582 233.5,92.5C 232.596,93.209 232.263,94.209 232.5,95.5C 231.596,96.209 231.263,97.209 231.5,98.5C 230.596,99.209 230.263,100.209 230.5,101.5C 229.833,101.167 229.167,100.833 228.5,100.5C 228.737,99.209 228.404,98.209 227.5,97.5C 227.737,96.209 227.404,95.209 226.5,94.5C 226.737,93.209 226.404,92.209 225.5,91.5C 225.737,90.209 225.404,89.209 224.5,88.5C 224.737,87.209 224.404,86.209 223.5,85.5C 223.267,82.4582 222.267,79.7916 220.5,77.5C 220.737,76.209 220.404,75.209 219.5,74.5C 219.737,73.209 219.404,72.209 218.5,71.5C 218.737,70.209 218.404,69.209 217.5,68.5C 217.737,67.209 217.404,66.209 216.5,65.5C 216.737,64.209 216.404,63.209 215.5,62.5C 215.737,61.209 215.404,60.209 214.5,59.5C 214.737,58.209 214.404,57.209 213.5,56.5C 212.935,52.4632 211.601,48.7966 209.5,45.5C 209.737,44.209 209.404,43.209 208.5,42.5C 208.737,41.209 208.404,40.209 207.5,39.5C 207.737,38.209 207.404,37.209 206.5,36.5C 206.737,35.209 206.404,34.209 205.5,33.5C 205.737,32.209 205.404,31.209 204.5,30.5C 204.737,29.209 204.404,28.209 203.5,27.5C 203.737,26.209 203.404,25.209 202.5,24.5C 202.737,23.209 202.404,22.209 201.5,21.5C 201.267,18.4582 200.267,15.7916 198.5,13.5C 198.672,12.5084 198.338,11.8417 197.5,11.5C 183.673,10.6689 169.673,10.1689 155.5,10C 169.833,9.33333 184.167,9.33333 198.5,10C 199,10.5 199.5,11 200,11.5C 209.419,40.0932 219.419,68.4266 230,96.5C 239.833,67.3513 250.333,38.518 261.5,10C 276.167,9.33333 290.833,9.33333 305.5,10C 290.994,10.1688 276.661,10.6688 262.5,11.5 Z"/></g>
<g><path style="opacity:0.939" fill="#da202c" d="M 598.5,27.5 C 601.835,29.6798 604.335,32.6798 606,36.5C 608.442,41.933 610.108,47.5997 611,53.5C 611.667,68.8333 611.667,84.1667 611,99.5C 608.538,114.932 600.705,126.766 587.5,135C 589.324,135.66 590.657,136.827 591.5,138.5C 589.207,139.301 589.54,139.968 592.5,140.5C 592.5,141.167 592.833,141.5 593.5,141.5C 593.5,142.167 593.833,142.5 594.5,142.5C 594.842,143.338 595.508,143.672 596.5,143.5C 596.738,145.404 597.738,146.738 599.5,147.5C 599.5,148.167 599.833,148.5 600.5,148.5C 600.427,150.027 601.094,151.027 602.5,151.5C 602.328,152.492 602.662,153.158 603.5,153.5C 603.66,155.153 604.326,156.486 605.5,157.5C 605.328,158.492 605.662,159.158 606.5,159.5C 606.263,160.791 606.596,161.791 607.5,162.5C 608.963,171.935 609.963,181.435 610.5,191C 610.405,201.937 610.071,212.937 609.5,224C 609.958,232.006 610.958,239.839 612.5,247.5C 612.232,249.099 612.566,250.432 613.5,251.5C 613.629,253.216 613.962,254.883 614.5,256.5C 615.167,256.5 615.833,256.5 616.5,256.5C 616.423,257.75 615.756,258.583 614.5,259C 599.259,259.175 584.092,259.675 569,260.5C 567.488,259.743 566.154,258.743 565,257.5C 563.488,252.607 562.488,247.607 562,242.5C 561.667,221.5 561.333,200.5 561,179.5C 560.817,170.95 556.984,164.784 549.5,161C 541.251,159.375 532.918,158.542 524.5,158.5C 524.667,192.168 524.5,225.835 524,259.5C 523.5,260 523,260.5 522.5,261C 507.641,261.727 492.808,262.561 478,263.5C 476.527,263.097 475.194,262.43 474,261.5C 473.333,178.167 473.333,94.8333 474,11.5C 474.167,94.6677 474.667,177.668 475.5,260.5C 475.506,177.793 475.506,95.2926 475.5,13C 502.687,11.6751 530.021,11.0085 557.5,11C 530.167,10.6667 502.833,10.3333 475.5,10C 506.527,9.06308 537.527,9.39641 568.5,11C 577.942,12.9223 586.609,16.589 594.5,22C 596.464,23.451 597.797,25.2843 598.5,27.5 Z M 586.5,19.5 C 587.756,19.4614 588.756,19.9614 589.5,21C 588.002,21.5847 587.002,21.0847 586.5,19.5 Z M 598.5,27.5 C 598.5,28.1667 598.5,28.8333 598.5,29.5C 595.813,27.6061 595.813,26.9394 598.5,27.5 Z M 599.5,30.5 C 600.906,30.9731 601.573,31.9731 601.5,33.5C 600.094,33.0269 599.427,32.0269 599.5,30.5 Z M 601.5,33.5 C 602.906,33.9731 603.573,34.9731 603.5,36.5C 602.094,36.0269 601.427,35.0269 601.5,33.5 Z M 605.5,40.5 C 607.472,43.0836 608.472,46.0836 608.5,49.5C 606.928,46.7846 605.928,43.7846 605.5,40.5 Z M 541.5,47.5 C 535.591,48.4553 529.591,48.7886 523.5,48.5C 523.667,71.8357 523.5,95.169 523,118.5C 522.654,116.782 522.154,115.115 521.5,113.5C 522.689,98.6297 522.689,84.2964 521.5,70.5C 522.824,62.8082 522.824,55.3082 521.5,48C 528.301,46.5066 534.968,46.3399 541.5,47.5 Z M 556.5,112.5 C 546.361,116.723 535.694,118.723 524.5,118.5C 524.5,95.5 524.5,72.5 524.5,49.5C 533.537,49.3354 542.537,49.8354 551.5,51C 556.256,53.4217 559.09,57.255 560,62.5C 562,76.1667 562,89.8333 560,103.5C 558.82,106.521 557.654,109.521 556.5,112.5 Z M 608.5,49.5 C 609.302,50.9516 609.802,52.6183 610,54.5C 610.667,68.8333 610.667,83.1667 610,97.5C 609.796,100.797 608.963,103.797 607.5,106.5C 609.782,87.5531 610.115,68.5531 608.5,49.5 Z M 558.5,53.5 C 560.104,54.287 560.771,55.6203 560.5,57.5C 559.326,56.4863 558.66,55.153 558.5,53.5 Z M 560.5,57.5 C 562.011,59.4758 562.844,61.8091 563,64.5C 563.667,76.1667 563.667,87.8333 563,99.5C 562.947,104.172 561.447,108.172 558.5,111.5C 560.371,107.383 561.538,103.049 562,98.5C 562.888,84.7648 562.388,71.0981 560.5,57.5 Z M 558.5,111.5 C 558.5,112.833 557.833,113.5 556.5,113.5C 556.5,113.167 556.5,112.833 556.5,112.5C 557.167,112.167 557.833,111.833 558.5,111.5 Z M 605.5,111.5 C 605.539,114.089 604.539,116.089 602.5,117.5C 602.992,115.181 603.992,113.181 605.5,111.5 Z M 602.5,117.5 C 602.573,119.027 601.906,120.027 600.5,120.5C 600.427,118.973 601.094,117.973 602.5,117.5 Z M 600.5,120.5 C 600.573,122.027 599.906,123.027 598.5,123.5C 598.427,121.973 599.094,120.973 600.5,120.5 Z M 595.5,126.5 C 595.167,127.5 594.5,128.167 593.5,128.5C 593.5,127.167 594.167,126.5 595.5,126.5 Z M 590.5,130.5 C 590.027,131.906 589.027,132.573 587.5,132.5C 587.973,131.094 588.973,130.427 590.5,130.5 Z M 548.5,158.5 C 545.022,158.816 541.688,158.316 538.5,157C 540.035,156.504 541.535,156.67 543,157.5C 543.945,157.095 544.612,156.428 545,155.5C 545.985,156.814 547.152,157.814 548.5,158.5 Z M 522.5,258.5 C 522.082,257.778 521.416,257.278 520.5,257C 521.704,255.647 522.371,253.981 522.5,252C 522.354,227.286 522.021,201.953 521.5,176C 522.31,170.249 522.81,164.416 523,158.5C 523.831,192.003 523.664,225.336 522.5,258.5 Z M 554.5,161.5 C 556.833,161.833 558.167,163.167 558.5,165.5C 556.833,164.5 555.5,163.167 554.5,161.5 Z M 558.5,165.5 C 560.834,167.176 561.834,169.509 561.5,172.5C 560.264,170.351 559.264,168.018 558.5,165.5 Z M 562.5,177.5 C 563.303,201.224 563.969,224.89 564.5,248.5C 563.683,246.031 563.183,243.365 563,240.5C 562.5,219.503 562.333,198.503 562.5,177.5 Z M 614.5,256.5 C 614.217,257.289 613.717,257.956 613,258.5C 597.807,258.796 582.641,258.462 567.5,257.5C 583.038,257.722 598.705,257.388 614.5,256.5 Z M 521.5,259.5 C 506.183,261.222 490.85,261.555 475.5,260.5C 490.833,260.167 506.167,259.833 521.5,259.5 Z"/></g>
<g><path style="opacity:0.928" fill="#db202b" d="M 767.5,93.5 C 767.667,82.1618 767.5,70.8284 767,59.5C 766.809,57.2922 766.309,55.2922 765.5,53.5C 766.702,66.725 766.702,79.8917 765.5,93C 751.5,93.6667 737.5,93.6667 723.5,93C 722.926,80.8531 722.093,68.6864 721,56.5C 721.369,68.8027 721.536,81.1361 721.5,93.5C 720.861,81.967 720.028,70.3003 719,58.5C 717.5,53 714,49.5 708.5,48C 703.167,47.3333 697.833,47.3333 692.5,48C 685.961,50.5601 682.461,55.3935 682,62.5C 681.333,109.167 681.333,155.833 682,202.5C 683.329,213.269 689.496,218.602 700.5,218.5C 713.649,219.006 720.149,212.673 720,199.5C 720.5,184.837 720.667,170.17 720.5,155.5C 714.491,155.666 708.491,155.499 702.5,155C 702,154.5 701.5,154 701,153.5C 700.174,141.326 700.34,129.326 701.5,117.5C 701.172,129.345 701.505,141.012 702.5,152.5C 702.991,141.008 702.991,129.341 702.5,117.5C 717.639,117.998 732.639,117.998 747.5,117.5C 753.998,117.351 760.331,117.851 766.5,119C 766.784,149.973 766.451,181.14 765.5,212.5C 766.309,210.708 766.809,208.708 767,206.5C 767.333,176.833 767.667,147.167 768,117.5C 768.667,147.833 768.667,178.167 768,208.5C 763.082,239.084 745.249,256.584 714.5,261C 694.464,264.042 675.464,261.042 657.5,252C 641.038,240.589 632.204,224.755 631,204.5C 630.333,156.5 630.333,108.5 631,60.5C 633.875,33.6394 648.209,16.6394 674,9.5C 691.851,9.37791 709.684,9.54457 727.5,10C 751.39,16.8956 764.89,32.729 768,57.5C 768.826,69.6738 768.66,81.6738 767.5,93.5 Z M 673.5,11.5 C 671.786,12.7384 669.786,13.405 667.5,13.5C 669.102,11.9261 671.102,11.2594 673.5,11.5 Z M 729.5,12.5 C 731.553,12.4021 733.22,13.0687 734.5,14.5C 732.447,14.5979 730.78,13.9313 729.5,12.5 Z M 740.5,17.5 C 742.027,17.427 743.027,18.0937 743.5,19.5C 741.973,19.573 740.973,18.9063 740.5,17.5 Z M 747.5,22.5 C 749.749,23.0798 751.415,24.4131 752.5,26.5C 750.251,25.9202 748.585,24.5869 747.5,22.5 Z M 752.5,26.5 C 753.906,26.9731 754.573,27.9731 754.5,29.5C 753.094,29.0269 752.427,28.0269 752.5,26.5 Z M 645.5,28.5 C 645.573,30.0269 644.906,31.0269 643.5,31.5C 643.427,29.9731 644.094,28.9731 645.5,28.5 Z M 755.5,30.5 C 756.906,30.9731 757.573,31.9731 757.5,33.5C 757.167,33.5 756.833,33.5 756.5,33.5C 755.89,32.609 755.557,31.609 755.5,30.5 Z M 642.5,32.5 C 642.25,34.674 641.25,36.3406 639.5,37.5C 639.75,35.326 640.75,33.6594 642.5,32.5 Z M 758.5,35.5 C 759.906,35.9731 760.573,36.9731 760.5,38.5C 759.094,38.0269 758.427,37.0269 758.5,35.5 Z M 760.5,38.5 C 761.931,39.7804 762.598,41.4471 762.5,43.5C 761.069,42.2196 760.402,40.5529 760.5,38.5 Z M 638.5,39.5 C 638.02,42.4432 637.02,45.1098 635.5,47.5C 635.415,44.3511 636.415,41.6845 638.5,39.5 Z M 762.5,43.5 C 764.68,46.381 765.68,49.7144 765.5,53.5C 764.13,50.3811 763.13,47.0477 762.5,43.5 Z M 710.5,46.5 C 703.841,45.2168 697.174,45.2168 690.5,46.5C 693.695,44.9704 697.195,44.3037 701,44.5C 703.5,44.6667 706,44.8333 708.5,45C 709.416,45.2784 710.082,45.7784 710.5,46.5 Z M 715.5,49.5 C 718.297,49.9666 719.631,51.6333 719.5,54.5C 718.197,52.8577 716.864,51.1911 715.5,49.5 Z M 634.5,50.5 C 634.283,54.7051 633.617,58.7051 632.5,62.5C 632.198,58.2095 632.864,54.2095 634.5,50.5 Z M 684.5,50.5 C 684.573,52.0269 683.906,53.0269 682.5,53.5C 682.5,52.8333 682.5,52.1667 682.5,51.5C 683.167,51.1667 683.833,50.8333 684.5,50.5 Z M 682.5,53.5 C 682.279,56.0673 681.612,58.4006 680.5,60.5C 680.171,57.7718 680.837,55.4385 682.5,53.5 Z M 680.5,60.5 C 680.5,108.5 680.5,156.5 680.5,204.5C 679.831,162.431 679.164,120.264 678.5,78C 679.148,72.0672 679.814,66.2339 680.5,60.5 Z M 632.5,62.5 C 632.72,111.001 633.053,160.334 633.5,210.5C 632.686,208.369 632.186,206.036 632,203.5C 631.168,156.332 631.335,109.332 632.5,62.5 Z M 701.5,117.5 C 701.833,117.5 702.167,117.5 702.5,117.5C 702.991,129.341 702.991,141.008 702.5,152.5C 701.505,141.012 701.172,129.345 701.5,117.5 Z M 703.5,153.5 C 710.175,153.334 716.842,153.5 723.5,154C 722.674,170.759 722.174,187.593 722,204.5C 721.79,206.058 721.29,207.391 720.5,208.5C 721.416,190.52 721.75,172.52 721.5,154.5C 715.31,154.823 709.31,154.49 703.5,153.5 Z M 719.5,211.5 C 719.573,213.027 718.906,214.027 717.5,214.5C 717.427,212.973 718.094,211.973 719.5,211.5 Z M 765.5,212.5 C 765.706,215.495 765.04,218.162 763.5,220.5C 763.565,217.572 764.232,214.905 765.5,212.5 Z M 686.5,216.5 C 689.018,217.264 691.351,218.264 693.5,219.5C 690.509,219.834 688.176,218.834 686.5,216.5 Z M 715.5,216.5 C 714.025,218.41 712.025,219.576 709.5,220C 703.984,220.817 698.65,220.651 693.5,219.5C 701.101,220.103 708.435,219.103 715.5,216.5 Z M 641.5,232.5 C 642.906,232.973 643.573,233.973 643.5,235.5C 642.094,235.027 641.427,234.027 641.5,232.5 Z M 756.5,234.5 C 756.573,236.027 755.906,237.027 754.5,237.5C 754.427,235.973 755.094,234.973 756.5,234.5 Z M 643.5,235.5 C 644.906,235.973 645.573,236.973 645.5,238.5C 644.094,238.027 643.427,237.027 643.5,235.5 Z M 754.5,237.5 C 754.573,239.027 753.906,240.027 752.5,240.5C 752.427,238.973 753.094,237.973 754.5,237.5 Z M 749.5,243.5 C 748.738,245.262 747.404,246.262 745.5,246.5C 746.262,244.738 747.596,243.738 749.5,243.5 Z M 740.5,250.5 C 737.912,252.625 734.912,253.958 731.5,254.5C 734.088,252.375 737.088,251.042 740.5,250.5 Z M 681.5,259.5 C 693.669,259.649 706.002,259.482 718.5,259C 706.187,260.805 693.854,260.971 681.5,259.5 Z"/></g>
<g><path style="opacity:0.752" fill="#da202b" d="M 840.5,11.5 C 824.167,10.1667 807.833,10.1667 791.5,11.5C 799.305,10.1688 807.472,9.5021 816,9.5C 824.528,9.5021 832.695,10.1688 840.5,11.5 Z"/></g>
<g><path style="opacity:0.477" fill="#da202b" d="M 991.5,10.5 C 949.891,10.5099 908.558,10.5099 867.5,10.5C 908.998,9.16932 950.331,9.16932 991.5,10.5 Z"/></g>
<g><path style="opacity:0.483" fill="#da202b" d="M 1014.5,10.5 C 1029.5,9.16667 1044.5,9.16667 1059.5,10.5C 1044.5,10.5 1029.5,10.5 1014.5,10.5 Z"/></g>
<g><path style="opacity:0.946" fill="#da202b" d="M 1192.5,14.5 C 1190.07,15.5477 1190.07,16.2144 1192.5,16.5C 1192.97,17.9063 1193.97,18.573 1195.5,18.5C 1195.97,19.9063 1196.97,20.573 1198.5,20.5C 1198.5,21.1667 1198.83,21.5 1199.5,21.5C 1200.26,23.2624 1201.6,24.2624 1203.5,24.5C 1203.5,25.1667 1203.83,25.5 1204.5,25.5C 1204.5,26.1667 1204.83,26.5 1205.5,26.5C 1205.5,27.1667 1205.83,27.5 1206.5,27.5C 1206.43,29.0269 1207.09,30.0269 1208.5,30.5C 1208.43,32.0269 1209.09,33.0269 1210.5,33.5C 1210.43,35.0269 1211.09,36.0269 1212.5,36.5C 1212.99,38.8185 1213.99,40.8185 1215.5,42.5C 1215.33,43.4916 1215.66,44.1583 1216.5,44.5C 1216.26,45.791 1216.6,46.791 1217.5,47.5C 1217.26,48.791 1217.6,49.791 1218.5,50.5C 1222.12,66.7566 1222.45,83.0899 1219.5,99.5C 1218.57,100.568 1218.23,101.901 1218.5,103.5C 1217.57,104.568 1217.23,105.901 1217.5,107.5C 1216.6,108.209 1216.26,109.209 1216.5,110.5C 1215.6,111.209 1215.26,112.209 1215.5,113.5C 1214.66,113.842 1214.33,114.508 1214.5,115.5C 1213.6,116.209 1213.26,117.209 1213.5,118.5C 1212.66,118.842 1212.33,119.508 1212.5,120.5C 1211.66,120.842 1211.33,121.508 1211.5,122.5C 1210.66,122.842 1210.33,123.508 1210.5,124.5C 1209.66,124.842 1209.33,125.508 1209.5,126.5C 1208.66,126.842 1208.33,127.508 1208.5,128.5C 1206.75,129.659 1205.75,131.326 1205.5,133.5C 1203.75,134.659 1202.75,136.326 1202.5,138.5C 1201.83,138.5 1201.5,138.833 1201.5,139.5C 1200.66,139.842 1200.33,140.508 1200.5,141.5C 1199.83,141.5 1199.5,141.833 1199.5,142.5C 1198.09,142.973 1197.43,143.973 1197.5,145.5C 1196.09,145.973 1195.43,146.973 1195.5,148.5C 1194.83,148.5 1194.5,148.833 1194.5,149.5C 1193.83,149.5 1193.5,149.833 1193.5,150.5C 1191.74,151.262 1190.74,152.596 1190.5,154.5C 1189.83,154.5 1189.5,154.833 1189.5,155.5C 1187.74,156.262 1186.74,157.596 1186.5,159.5C 1185.83,159.5 1185.5,159.833 1185.5,160.5C 1184.83,160.5 1184.5,160.833 1184.5,161.5C 1183.83,161.5 1183.5,161.833 1183.5,162.5C 1182.83,162.5 1182.5,162.833 1182.5,163.5C 1181.83,163.5 1181.5,163.833 1181.5,164.5C 1180.83,164.5 1180.5,164.833 1180.5,165.5C 1179.04,166.458 1177.71,167.624 1176.5,169C 1177.45,169.617 1178.28,169.451 1179,168.5C 1179.67,169.167 1179.67,169.833 1179,170.5C 1176.56,173.447 1173.73,175.78 1170.5,177.5C 1168.5,181.5 1165.5,184.5 1161.5,186.5C 1154.44,194.924 1147.61,203.591 1141,212.5C 1137.45,219.053 1135.95,226.053 1136.5,233.5C 1163.53,235.233 1190.53,237.4 1217.5,240C 1218,240.5 1218.5,241 1219,241.5C 1219.83,255.673 1219.66,269.673 1218.5,283.5C 1218.67,269.829 1218.5,256.163 1218,242.5C 1217.82,256.075 1217.32,269.575 1216.5,283C 1187.26,280.054 1157.92,277.554 1128.5,275.5C 1123.36,274.886 1118.19,273.886 1113,272.5C 1110.28,273.444 1107.45,273.777 1104.5,273.5C 1099.01,272.565 1093.34,271.898 1087.5,271.5C 1087.08,253.113 1087.75,234.78 1089.5,216.5C 1090.92,214.485 1091.59,212.152 1091.5,209.5C 1092.93,208.22 1093.6,206.553 1093.5,204.5C 1094.34,204.158 1094.67,203.492 1094.5,202.5C 1095.34,202.158 1095.67,201.492 1095.5,200.5C 1096.34,200.158 1096.67,199.492 1096.5,198.5C 1097.34,198.158 1097.67,197.492 1097.5,196.5C 1098.34,196.158 1098.67,195.492 1098.5,194.5C 1099.91,194.027 1100.57,193.027 1100.5,191.5C 1101.91,191.027 1102.57,190.027 1102.5,188.5C 1103.34,188.158 1103.67,187.492 1103.5,186.5C 1104.17,186.5 1104.5,186.167 1104.5,185.5C 1105.91,185.027 1106.57,184.027 1106.5,182.5C 1107.17,182.5 1107.5,182.167 1107.5,181.5C 1108.91,181.027 1109.57,180.027 1109.5,178.5C 1110.17,178.5 1110.5,178.167 1110.5,177.5C 1111.17,177.5 1111.5,177.167 1111.5,176.5C 1112.17,176.5 1112.5,176.167 1112.5,175.5C 1113.17,175.5 1113.5,175.167 1113.5,174.5C 1115.26,173.738 1116.26,172.404 1116.5,170.5C 1117.17,170.5 1117.5,170.167 1117.5,169.5C 1118.17,169.5 1118.5,169.167 1118.5,168.5C 1119.17,168.5 1119.5,168.167 1119.5,167.5C 1120.17,167.5 1120.5,167.167 1120.5,166.5C 1121.17,166.5 1121.5,166.167 1121.5,165.5C 1122.17,165.5 1122.5,165.167 1122.5,164.5C 1123.17,164.5 1123.5,164.167 1123.5,163.5C 1124.17,163.5 1124.5,163.167 1124.5,162.5C 1125.17,162.5 1125.5,162.167 1125.5,161.5C 1126.17,161.5 1126.5,161.167 1126.5,160.5C 1127.17,160.5 1127.5,160.167 1127.5,159.5C 1128.17,159.5 1128.5,159.167 1128.5,158.5C 1129.17,158.5 1129.5,158.167 1129.5,157.5C 1131.5,157.5 1132.5,156.5 1132.5,154.5C 1133.17,154.5 1133.5,154.167 1133.5,153.5C 1134.17,153.5 1134.5,153.167 1134.5,152.5C 1135.17,152.5 1135.5,152.167 1135.5,151.5C 1138.65,150.526 1140.48,148.526 1141,145.5C 1139.63,147.041 1138.13,148.375 1136.5,149.5C 1143.43,140.726 1150.6,132.059 1158,123.5C 1170.71,104.988 1175.04,84.655 1171,62.5C 1167.92,53.2762 1161.42,48.9429 1151.5,49.5C 1142.13,49.7038 1136.63,54.3705 1135,63.5C 1134.04,76.0481 1133.2,88.5481 1132.5,101C 1131.5,101.5 1130.5,102 1129.5,102.5C 1117.21,101.686 1104.88,101.186 1092.5,101C 1089.95,100.998 1087.95,100.164 1086.5,98.5C 1101.64,100.572 1116.8,100.905 1132,99.5C 1132.51,86.8164 1132.85,74.1497 1133,61.5C 1131.88,74.0059 1131.05,86.5059 1130.5,99C 1116.23,99.8528 1102.06,99.3528 1088,97.5C 1086.83,81.0406 1087.66,64.7073 1090.5,48.5C 1091.4,47.791 1091.74,46.791 1091.5,45.5C 1092.34,45.1583 1092.67,44.4916 1092.5,43.5C 1093.4,42.791 1093.74,41.791 1093.5,40.5C 1095.25,39.3406 1096.25,37.674 1096.5,35.5C 1097.91,35.0269 1098.57,34.0269 1098.5,32.5C 1099.91,32.0269 1100.57,31.0269 1100.5,29.5C 1101.17,29.5 1101.5,29.1667 1101.5,28.5C 1102.17,28.5 1102.5,28.1667 1102.5,27.5C 1103.17,27.5 1103.5,27.1667 1103.5,26.5C 1104.83,25.8333 1105.83,24.8333 1106.5,23.5C 1107.17,23.5 1107.5,23.1667 1107.5,22.5C 1108.17,22.5 1108.5,22.1667 1108.5,21.5C 1109.83,21.1667 1109.83,20.8333 1108.5,20.5C 1113.98,14.6726 1120.81,11.0059 1129,9.5C 1146,9.5 1163,9.5 1180,9.5C 1184.53,10.5213 1188.69,12.1879 1192.5,14.5 Z M 1114.5,17.5 C 1114.03,18.9063 1113.03,19.573 1111.5,19.5C 1111.97,18.0937 1112.97,17.427 1114.5,17.5 Z M 1166.5,51.5 C 1168.5,51.5 1169.5,52.5 1169.5,54.5C 1168.17,53.8333 1167.17,52.8333 1166.5,51.5 Z M 1169.5,54.5 C 1171.83,56.1757 1172.83,58.509 1172.5,61.5C 1171.26,59.351 1170.26,57.0177 1169.5,54.5 Z M 1172.5,61.5 C 1174.39,68.6266 1175.39,75.7932 1175.5,83C 1174.43,88.6549 1173.09,94.1549 1171.5,99.5C 1173.65,86.8827 1173.98,74.2161 1172.5,61.5 Z M 1163.5,118.5 C 1163.57,120.027 1162.91,121.027 1161.5,121.5C 1161.43,119.973 1162.09,118.973 1163.5,118.5 Z M 1161.5,121.5 C 1161.57,123.027 1160.91,124.027 1159.5,124.5C 1159.43,122.973 1160.09,121.973 1161.5,121.5 Z M 1156.5,128.5 C 1156.57,130.027 1155.91,131.027 1154.5,131.5C 1154.43,129.973 1155.09,128.973 1156.5,128.5 Z M 1151.5,134.5 C 1151.26,136.404 1150.26,137.738 1148.5,138.5C 1148.74,136.596 1149.74,135.262 1151.5,134.5 Z M 1170.5,177.5 C 1168.89,178.969 1168.39,178.635 1169,176.5C 1171.06,173.726 1173.56,171.893 1176.5,171C 1174.29,173.037 1172.29,175.203 1170.5,177.5 Z M 1165.5,180.5 C 1164.58,182.754 1163.25,184.754 1161.5,186.5C 1160.58,187.303 1159.58,187.47 1158.5,187C 1160.7,184.628 1163.04,182.461 1165.5,180.5 Z M 1152.5,194.5 C 1153.37,192.114 1154.87,190.114 1157,188.5C 1156.57,191.121 1155.07,193.121 1152.5,194.5 Z M 1148.5,198.5 C 1148.26,200.404 1147.26,201.738 1145.5,202.5C 1145.74,200.596 1146.74,199.262 1148.5,198.5 Z M 1144.5,203.5 C 1144.57,205.027 1143.91,206.027 1142.5,206.5C 1142.43,204.973 1143.09,203.973 1144.5,203.5 Z M 1142.5,206.5 C 1142.57,208.027 1141.91,209.027 1140.5,209.5C 1140.43,207.973 1141.09,206.973 1142.5,206.5 Z M 1139.5,211.5 C 1139.01,213.819 1138.01,215.819 1136.5,217.5C 1136.46,214.911 1137.46,212.911 1139.5,211.5 Z M 1136.5,217.5 C 1135.9,222.861 1135.07,228.194 1134,233.5C 1133.06,227.778 1133.89,222.444 1136.5,217.5 Z M 1156.5,236.5 C 1148.8,236.569 1141.13,236.069 1133.5,235C 1141.35,234.67 1149.02,235.17 1156.5,236.5 Z M 1156.5,236.5 C 1165.04,236.464 1173.37,237.131 1181.5,238.5C 1172.96,238.536 1164.63,237.869 1156.5,236.5 Z M 1181.5,238.5 C 1189.71,238.413 1197.71,239.079 1205.5,240.5C 1197.3,240.483 1189.3,239.817 1181.5,238.5 Z"/></g>
<g><path style="opacity:0.937" fill="#da202b" d="M 1375.5,56.5 C 1376.82,74.5028 1376.82,92.5028 1375.5,110.5C 1374.08,112.515 1373.41,114.848 1373.5,117.5C 1372.66,117.842 1372.33,118.508 1372.5,119.5C 1371.66,119.842 1371.33,120.508 1371.5,121.5C 1368.64,125.132 1368.97,125.799 1372.5,123.5C 1368.66,132.68 1362.32,139.68 1353.5,144.5C 1362.79,151.915 1369.79,161.082 1374.5,172C 1373.26,172.456 1372.42,171.956 1372,170.5C 1371.4,172.535 1371.9,174.201 1373.5,175.5C 1374.17,179.851 1375,184.184 1376,188.5C 1376.17,198.5 1376.33,208.5 1376.5,218.5C 1376.49,228.895 1375.82,239.061 1374.5,249C 1375.27,252.487 1374.94,255.987 1373.5,259.5C 1373.67,260.167 1373.83,260.833 1374,261.5C 1374.82,259.212 1375.49,256.878 1376,254.5C 1372.77,278.734 1359.27,293.901 1335.5,300C 1273.02,303.686 1241.68,274.186 1241.5,211.5C 1241.67,205.5 1241.83,199.5 1242,193.5C 1242.38,192.944 1242.88,192.611 1243.5,192.5C 1243.5,193.167 1243.5,193.833 1243.5,194.5C 1244.42,194.018 1245.42,193.685 1246.5,193.5C 1260.42,194.702 1274.09,196.036 1287.5,197.5C 1287.5,196.833 1287.5,196.167 1287.5,195.5C 1288.12,195.611 1288.62,195.944 1289,196.5C 1289.02,210.257 1290.02,223.924 1292,237.5C 1296.23,246.955 1303.57,251.621 1314,251.5C 1317.23,250.722 1320.23,249.388 1323,247.5C 1325.87,242.898 1327.53,237.898 1328,232.5C 1328.67,218.833 1328.67,205.167 1328,191.5C 1327.41,179.601 1321.58,171.768 1310.5,168C 1302.68,166.863 1295.02,165.696 1287.5,164.5C 1292.89,164.494 1298.23,164.661 1303.5,165C 1298.2,163.888 1292.86,163.055 1287.5,162.5C 1287.33,149.496 1287.5,136.496 1288,123.5C 1293.74,123.254 1299.58,123.088 1305.5,123C 1299.5,122.333 1293.5,121.667 1287.5,121C 1296.21,121.61 1304.88,121.276 1313.5,120C 1322.53,118.296 1327.36,112.796 1328,103.5C 1328.67,92.8333 1328.67,82.1667 1328,71.5C 1326.56,55.7364 1318.06,49.5697 1302.5,53C 1297.43,54.4056 1293.93,57.5723 1292,62.5C 1290.15,72.7395 1289.15,83.0729 1289,93.5C 1288.62,94.056 1288.12,94.3893 1287.5,94.5C 1284.52,95.1649 1281.35,95.4982 1278,95.5C 1266.5,94.9201 1255,94.4201 1243.5,94C 1243,93.5 1242.5,93 1242,92.5C 1240.22,75.7677 1241.89,59.4344 1247,43.5C 1254.01,25.8189 1266.68,14.4856 1285,9.5C 1302,9.5 1319,9.5 1336,9.5C 1359.4,17.028 1372.56,32.6946 1375.5,56.5 Z M 1268.5,19.5 C 1268.03,20.9063 1267.03,21.573 1265.5,21.5C 1265.97,20.0937 1266.97,19.427 1268.5,19.5 Z M 1263.5,23.5 C 1262.5,25.1667 1261.17,26.5 1259.5,27.5C 1259.83,25.1667 1261.17,23.8333 1263.5,23.5 Z M 1256.5,30.5 C 1256.57,32.0269 1255.91,33.0269 1254.5,33.5C 1254.43,31.9731 1255.09,30.9731 1256.5,30.5 Z M 1254.5,33.5 C 1253.92,36.3311 1252.59,38.6644 1250.5,40.5C 1251.08,37.6689 1252.41,35.3356 1254.5,33.5 Z M 1367.5,36.5 C 1369.54,37.911 1370.54,39.911 1370.5,42.5C 1368.99,40.8185 1367.99,38.8185 1367.5,36.5 Z M 1249.5,42.5 C 1249.6,44.5529 1248.93,46.2196 1247.5,47.5C 1247.4,45.4471 1248.07,43.7804 1249.5,42.5 Z M 1371.5,44.5 C 1372.93,45.7804 1373.6,47.4471 1373.5,49.5C 1372.07,48.2196 1371.4,46.5529 1371.5,44.5 Z M 1299.5,51.5 C 1301.92,49.6205 1304.58,49.2872 1307.5,50.5C 1304.91,51.48 1302.25,51.8134 1299.5,51.5 Z M 1373.5,49.5 C 1374.92,51.5145 1375.59,53.8478 1375.5,56.5C 1374.08,54.4855 1373.41,52.1522 1373.5,49.5 Z M 1297.5,52.5 C 1297.03,53.9063 1296.03,54.573 1294.5,54.5C 1294.97,53.0937 1295.97,52.427 1297.5,52.5 Z M 1245.5,54.5 C 1243.86,66.7702 1243.2,79.1035 1243.5,91.5C 1242.34,83.3437 1242.18,75.0104 1243,66.5C 1243.19,62.2335 1244.02,58.2335 1245.5,54.5 Z M 1322.5,54.5 C 1324.5,54.5 1325.5,55.5 1325.5,57.5C 1324.17,56.8333 1323.17,55.8333 1322.5,54.5 Z M 1293.5,55.5 C 1292.89,57.4341 1291.89,59.1007 1290.5,60.5C 1290.27,58.0672 1291.27,56.4006 1293.5,55.5 Z M 1325.5,57.5 C 1327.83,59.1757 1328.83,61.509 1328.5,64.5C 1327.26,62.351 1326.26,60.0177 1325.5,57.5 Z M 1289.5,64.5 C 1289.14,74.0062 1288.48,83.3395 1287.5,92.5C 1287.33,84.16 1287.5,75.8267 1288,67.5C 1288.23,66.2625 1288.73,65.2625 1289.5,64.5 Z M 1244.5,92.5 C 1258.92,92.7635 1273.25,92.7635 1287.5,92.5C 1287.5,93.1667 1287.5,93.8333 1287.5,94.5C 1273,94.1186 1258.66,93.452 1244.5,92.5 Z M 1326.5,114.5 C 1325.83,117.167 1324.17,118.833 1321.5,119.5C 1322.83,117.5 1324.5,115.833 1326.5,114.5 Z M 1321.5,119.5 C 1320.26,121.043 1318.6,122.043 1316.5,122.5C 1316.17,122.167 1315.83,121.833 1315.5,121.5C 1317.41,120.523 1319.41,119.857 1321.5,119.5 Z M 1368.5,127.5 C 1368.26,129.404 1367.26,130.738 1365.5,131.5C 1365.74,129.596 1366.74,128.262 1368.5,127.5 Z M 1364.5,132.5 C 1363.83,135.167 1362.17,136.833 1359.5,137.5C 1360.83,135.5 1362.5,133.833 1364.5,132.5 Z M 1354.5,141.5 C 1353.22,142.931 1351.55,143.598 1349.5,143.5C 1350.78,142.069 1352.45,141.402 1354.5,141.5 Z M 1349.5,143.5 C 1349.83,144.167 1350.17,144.833 1350.5,145.5C 1349.08,145.291 1347.74,144.791 1346.5,144C 1347.45,143.517 1348.45,143.351 1349.5,143.5 Z M 1351.5,146.5 C 1353.03,146.427 1354.03,147.094 1354.5,148.5C 1352.97,148.573 1351.97,147.906 1351.5,146.5 Z M 1354.5,148.5 C 1356.75,149.08 1358.42,150.413 1359.5,152.5C 1357.25,151.92 1355.58,150.587 1354.5,148.5 Z M 1364.5,158.5 C 1365.91,158.973 1366.57,159.973 1366.5,161.5C 1365.09,161.027 1364.43,160.027 1364.5,158.5 Z M 1366.5,161.5 C 1367.91,161.973 1368.57,162.973 1368.5,164.5C 1367.09,164.027 1366.43,163.027 1366.5,161.5 Z M 1315.5,167.5 C 1317.03,167.427 1318.03,168.094 1318.5,169.5C 1316.97,169.573 1315.97,168.906 1315.5,167.5 Z M 1327.5,180.5 C 1328.89,182.877 1329.72,185.543 1330,188.5C 1330.67,204.167 1330.67,219.833 1330,235.5C 1329.8,237.382 1329.3,239.048 1328.5,240.5C 1330.12,220.444 1329.79,200.444 1327.5,180.5 Z M 1243.5,194.5 C 1243.35,208.183 1243.69,221.85 1244.5,235.5C 1242.99,227.555 1242.33,219.388 1242.5,211C 1242.5,205.323 1242.83,199.823 1243.5,194.5 Z M 1287.5,197.5 C 1288.37,210.002 1289.04,222.669 1289.5,235.5C 1288.69,233.369 1288.19,231.036 1288,228.5C 1287.5,218.172 1287.33,207.839 1287.5,197.5 Z M 1244.5,235.5 C 1245.94,239.615 1246.94,243.948 1247.5,248.5C 1245.42,244.526 1244.42,240.192 1244.5,235.5 Z M 1292.5,243.5 C 1293.91,243.973 1294.57,244.973 1294.5,246.5C 1293.09,246.027 1292.43,245.027 1292.5,243.5 Z M 1327.5,243.5 C 1327.77,245.38 1327.1,246.713 1325.5,247.5C 1325.66,245.847 1326.33,244.514 1327.5,243.5 Z M 1325.5,247.5 C 1325.5,249.5 1324.5,250.5 1322.5,250.5C 1323.17,249.167 1324.17,248.167 1325.5,247.5 Z M 1302.5,251.5 C 1301.24,251.539 1300.24,251.039 1299.5,250C 1301,249.415 1302,249.915 1302.5,251.5 Z M 1322.5,250.5 C 1322.22,251.289 1321.72,251.956 1321,252.5C 1320.47,251.184 1320.97,250.517 1322.5,250.5 Z M 1248.5,251.5 C 1250.29,253.426 1251.29,255.759 1251.5,258.5C 1249.71,256.574 1248.71,254.241 1248.5,251.5 Z M 1253.5,262.5 C 1254.91,262.973 1255.57,263.973 1255.5,265.5C 1254.09,265.027 1253.43,264.027 1253.5,262.5 Z M 1372.5,264.5 C 1371.54,269.086 1369.54,273.086 1366.5,276.5C 1367.99,272.182 1369.99,268.182 1372.5,264.5 Z M 1256.5,267.5 C 1257.91,267.973 1258.57,268.973 1258.5,270.5C 1257.09,270.027 1256.43,269.027 1256.5,267.5 Z M 1259.5,271.5 C 1261.59,272.585 1262.92,274.251 1263.5,276.5C 1261.41,275.415 1260.08,273.749 1259.5,271.5 Z M 1366.5,276.5 C 1366.57,278.027 1365.91,279.027 1364.5,279.5C 1364.43,277.973 1365.09,276.973 1366.5,276.5 Z M 1266.5,279.5 C 1268.03,279.427 1269.03,280.094 1269.5,281.5C 1267.97,281.573 1266.97,280.906 1266.5,279.5 Z M 1364.5,279.5 C 1364.57,281.027 1363.91,282.027 1362.5,282.5C 1362.43,280.973 1363.09,279.973 1364.5,279.5 Z M 1270.5,282.5 C 1271.83,282.5 1272.5,283.167 1272.5,284.5C 1271.5,284.167 1270.83,283.5 1270.5,282.5 Z M 1359.5,285.5 C 1358.74,287.262 1357.4,288.262 1355.5,288.5C 1356.26,286.738 1357.6,285.738 1359.5,285.5 Z M 1276.5,286.5 C 1278.03,286.517 1278.53,287.184 1278,288.5C 1277.28,287.956 1276.78,287.289 1276.5,286.5 Z M 1354.5,289.5 C 1354.03,290.906 1353.03,291.573 1351.5,291.5C 1351.97,290.094 1352.97,289.427 1354.5,289.5 Z M 1291.5,293.5 C 1297.08,294.686 1297.41,295.186 1292.5,295C 1291.94,294.617 1291.61,294.117 1291.5,293.5 Z M 1346.5,294.5 C 1344.77,295.905 1342.77,296.405 1340.5,296C 1342.35,294.872 1344.35,294.372 1346.5,294.5 Z M 1297.5,296.5 C 1297.92,295.876 1298.58,295.543 1299.5,295.5C 1307.5,296.666 1315.5,297.833 1323.5,299C 1314.79,298.828 1306.12,297.995 1297.5,296.5 Z M 1329.5,298.5 C 1327.97,299.788 1326.3,299.788 1324.5,298.5C 1325.89,298.193 1327.55,298.193 1329.5,298.5 Z"/></g>
<g><path style="opacity:0.965" fill="#da202b" d="M 131.5,10.5 C 132.117,10.6107 132.617,10.944 133,11.5C 133.667,24.8333 133.667,38.1667 133,51.5C 132.5,52 132,52.5 131.5,53C 106.836,53.6746 82.1689,54.1746 57.5,54.5C 57.5,78.5 57.5,102.5 57.5,126.5C 75.3293,125.517 93.1627,124.517 111,123.5C 113.033,123.506 114.866,123.839 116.5,124.5C 95.8316,125.533 75.165,126.7 54.5,128C 74.0251,127.882 93.5251,127.049 113,125.5C 114.256,125.648 115.423,125.982 116.5,126.5C 116.082,127.222 115.416,127.722 114.5,128C 115.81,133.757 116.476,139.757 116.5,146C 116.117,152.707 116.117,159.207 116.5,165.5C 115.833,165.5 115.5,165.833 115.5,166.5C 95.4956,167.411 75.4956,168.411 55.5,169.5C 55.3334,197.502 55.5,225.502 56,253.5C 81.0627,250.277 106.229,247.61 131.5,245.5C 131.5,259.5 131.5,273.5 131.5,287.5C 90.5438,292.037 49.8771,297.037 9.5,302.5C 9.65653,205.291 9.98986,108.291 10.5,11.5C 50.8386,11.463 91.1719,11.7964 131.5,12.5C 131.5,11.8333 131.5,11.1667 131.5,10.5 Z M 131.5,12.5 C 132.833,25.1667 132.833,37.8333 131.5,50.5C 131.235,37.4638 131.235,24.7971 131.5,12.5 Z M 130.5,51.5 C 105.335,52.6569 80.0014,53.1569 54.5,53C 79.8189,51.7896 105.152,51.2896 130.5,51.5 Z"/></g>
<g><path style="opacity:0.761" fill="#da202b" d="M 149.5,10.5 C 148.833,11.1667 148.833,11.1667 149.5,10.5 Z"/></g>
<g><path style="opacity:0.951" fill="#da202b" d="M 991.5,10.5 C 992.117,10.6107 992.617,10.944 993,11.5C 993.821,24.0756 993.655,36.5756 992.5,49C 989.625,50.0653 986.625,50.5653 983.5,50.5C 961.511,49.5793 939.511,49.246 917.5,49.5C 917.5,70.5 917.5,91.5 917.5,112.5C 933.503,112.333 949.503,112.5 965.5,113C 969.633,112.906 973.299,113.74 976.5,115.5C 976.167,115.5 975.833,115.5 975.5,115.5C 975.48,127.53 975.48,139.53 975.5,151.5C 974.092,152.061 972.592,152.395 971,152.5C 952.178,151.417 933.345,150.917 914.5,151C 934.828,152.058 955.161,152.892 975.5,153.5C 973.022,154.164 970.355,154.497 967.5,154.5C 950.821,153.887 934.154,153.221 917.5,152.5C 917.5,175.5 917.5,198.5 917.5,221.5C 940.18,221.914 962.846,222.747 985.5,224C 988.361,223.97 990.695,224.803 992.5,226.5C 966.616,223.933 940.616,222.766 914.5,223C 939.84,224.111 965.173,225.278 990.5,226.5C 990.187,239.246 990.52,251.913 991.5,264.5C 950.344,263.054 909.344,260.888 868.5,258C 868.662,176.192 868.662,94.5252 868.5,13C 888.854,11.8379 909.354,11.3379 930,11.5C 950.572,11.5056 971.072,11.8389 991.5,12.5C 991.5,11.8333 991.5,11.1667 991.5,10.5 Z M 991.5,12.5 C 992.833,24.1667 992.833,35.8333 991.5,47.5C 990.167,35.8333 990.167,24.1667 991.5,12.5 Z M 914.5,49.5 C 915.832,59.6447 916.499,70.1447 916.5,81C 916.167,91.5 915.833,102 915.5,112.5C 913.926,91.3802 913.593,70.3802 914.5,49.5 Z M 975.5,115.5 C 955.168,115.017 934.835,114.517 914.5,114C 935.024,113.139 955.357,113.639 975.5,115.5 Z M 914.5,152.5 C 915.832,163.647 916.499,175.147 916.5,187C 916.167,198.5 915.833,210 915.5,221.5C 914.5,198.51 914.167,175.51 914.5,152.5 Z"/></g>
<g><path style="opacity:0.341" fill="#da202b" d="M 1014.5,10.5 C 1013.83,11.1667 1013.83,11.1667 1014.5,10.5 Z"/></g>
<g><path style="opacity:0.671" fill="#da202b" d="M 1059.5,10.5 C 1060.17,10.5 1060.5,10.8333 1060.5,11.5C 1060.17,11.1667 1059.83,10.8333 1059.5,10.5 Z"/></g>
<g><path style="opacity:0.393" fill="#da202b" d="M 148.5,11.5 C 148.328,12.4916 148.662,13.1583 149.5,13.5C 149.402,15.5529 150.069,17.2196 151.5,18.5C 151.263,19.791 151.596,20.791 152.5,21.5C 152.263,22.791 152.596,23.791 153.5,24.5C 153.263,25.791 153.596,26.791 154.5,27.5C 154.402,29.5529 155.069,31.2196 156.5,32.5C 156.263,33.791 156.596,34.791 157.5,35.5C 157.263,36.791 157.596,37.791 158.5,38.5C 158.263,39.791 158.596,40.791 159.5,41.5C 159.402,43.5529 160.069,45.2196 161.5,46.5C 161.263,47.791 161.596,48.791 162.5,49.5C 162.263,50.791 162.596,51.791 163.5,52.5C 163.263,53.791 163.596,54.791 164.5,55.5C 164.402,57.5529 165.069,59.2196 166.5,60.5C 166.263,61.791 166.596,62.791 167.5,63.5C 167.263,64.791 167.596,65.791 168.5,66.5C 168.328,67.4916 168.662,68.1583 169.5,68.5C 169.259,70.8984 169.926,72.8984 171.5,74.5C 171.263,75.791 171.596,76.791 172.5,77.5C 172.402,79.5529 173.069,81.2196 174.5,82.5C 174.263,83.791 174.596,84.791 175.5,85.5C 175.263,86.791 175.596,87.791 176.5,88.5C 176.263,89.791 176.596,90.791 177.5,91.5C 177.328,92.4916 177.662,93.1583 178.5,93.5C 178.263,94.791 178.596,95.791 179.5,96.5C 179.263,97.791 179.596,98.791 180.5,99.5C 180.154,101.705 179.487,101.872 178.5,100C 168.167,71 157.833,42 147.5,13C 147.57,12.2352 147.903,11.7352 148.5,11.5 Z"/></g>
<g><path style="opacity:0.941" fill="#db202b" d="M 197.5,11.5 C 197.328,12.4916 197.662,13.1583 198.5,13.5C 198.733,16.5418 199.733,19.2084 201.5,21.5C 201.263,22.791 201.596,23.791 202.5,24.5C 202.263,25.791 202.596,26.791 203.5,27.5C 203.263,28.791 203.596,29.791 204.5,30.5C 204.263,31.791 204.596,32.791 205.5,33.5C 205.263,34.791 205.596,35.791 206.5,36.5C 206.263,37.791 206.596,38.791 207.5,39.5C 207.263,40.791 207.596,41.791 208.5,42.5C 208.263,43.791 208.596,44.791 209.5,45.5C 210.065,49.5368 211.399,53.2034 213.5,56.5C 213.263,57.791 213.596,58.791 214.5,59.5C 214.263,60.791 214.596,61.791 215.5,62.5C 215.263,63.791 215.596,64.791 216.5,65.5C 216.263,66.791 216.596,67.791 217.5,68.5C 217.263,69.791 217.596,70.791 218.5,71.5C 218.263,72.791 218.596,73.791 219.5,74.5C 219.263,75.791 219.596,76.791 220.5,77.5C 220.733,80.5418 221.733,83.2084 223.5,85.5C 223.263,86.791 223.596,87.791 224.5,88.5C 224.263,89.791 224.596,90.791 225.5,91.5C 225.263,92.791 225.596,93.791 226.5,94.5C 226.263,95.791 226.596,96.791 227.5,97.5C 227.263,98.791 227.596,99.791 228.5,100.5C 228.491,102.308 228.991,103.975 230,105.5C 230.49,104.207 230.657,102.873 230.5,101.5C 231.404,100.791 231.737,99.791 231.5,98.5C 232.404,97.791 232.737,96.791 232.5,95.5C 233.404,94.791 233.737,93.791 233.5,92.5C 235.267,90.2084 236.267,87.5418 236.5,84.5C 237.404,83.791 237.737,82.791 237.5,81.5C 238.404,80.791 238.737,79.791 238.5,78.5C 239.404,77.791 239.737,76.791 239.5,75.5C 240.404,74.791 240.737,73.791 240.5,72.5C 241.931,71.2196 242.598,69.5529 242.5,67.5C 243.404,66.791 243.737,65.791 243.5,64.5C 244.404,63.791 244.737,62.791 244.5,61.5C 245.404,60.791 245.737,59.791 245.5,58.5C 246.404,57.791 246.737,56.791 246.5,55.5C 247.404,54.791 247.737,53.791 247.5,52.5C 248.931,51.2196 249.598,49.5529 249.5,47.5C 250.404,46.791 250.737,45.791 250.5,44.5C 251.404,43.791 251.737,42.791 251.5,41.5C 252.404,40.791 252.737,39.791 252.5,38.5C 253.931,37.2196 254.598,35.5529 254.5,33.5C 255.404,32.791 255.737,31.791 255.5,30.5C 256.404,29.791 256.737,28.791 256.5,27.5C 257.404,26.791 257.737,25.791 257.5,24.5C 258.404,23.791 258.737,22.791 258.5,21.5C 259.931,20.2196 260.598,18.5529 260.5,16.5C 261.404,15.791 261.737,14.791 261.5,13.5C 262.338,13.1583 262.672,12.4916 262.5,11.5C 276.504,11.3334 290.504,11.5001 304.5,12C 304.799,13.3204 304.966,14.8204 305,16.5C 305.862,14.913 306.529,13.2464 307,11.5C 307.167,12.1667 307.333,12.8333 307.5,13.5C 292.202,54.5597 277.202,95.7264 262.5,137C 278.829,181.32 295.163,225.653 311.5,270C 311.18,271.653 310.18,272.653 308.5,273C 294.007,274.249 279.507,275.416 265,276.5C 262.576,276.47 260.243,276.137 258,275.5C 247.384,243.65 236.384,211.983 225,180.5C 214.132,213.438 203.465,246.438 193,279.5C 192.623,280.942 191.79,281.942 190.5,282.5C 190.5,281.833 190.5,281.167 190.5,280.5C 175.939,282.69 161.272,284.357 146.5,285.5C 146.5,284.833 146.5,284.167 146.5,283.5C 147.404,282.791 147.737,281.791 147.5,280.5C 150.276,274.501 152.276,268.167 153.5,261.5C 154.404,260.791 154.737,259.791 154.5,258.5C 155.404,257.791 155.737,256.791 155.5,255.5C 156.404,254.791 156.737,253.791 156.5,252.5C 157.239,252.631 157.906,252.464 158.5,252C 157.748,251.329 157.414,250.496 157.5,249.5C 158.404,248.791 158.737,247.791 158.5,246.5C 159.404,245.791 159.737,244.791 159.5,243.5C 160.404,242.791 160.737,241.791 160.5,240.5C 161.404,239.791 161.737,238.791 161.5,237.5C 162.404,236.791 162.737,235.791 162.5,234.5C 163.404,233.791 163.737,232.791 163.5,231.5C 165.481,230.895 165.815,229.895 164.5,228.5C 165.404,227.791 165.737,226.791 165.5,225.5C 166.404,224.791 166.737,223.791 166.5,222.5C 167.404,221.791 167.737,220.791 167.5,219.5C 168.404,218.791 168.737,217.791 168.5,216.5C 169.404,215.791 169.737,214.791 169.5,213.5C 170.404,212.791 170.737,211.791 170.5,210.5C 171.404,209.791 171.737,208.791 171.5,207.5C 173.935,203.201 175.602,198.534 176.5,193.5C 177.404,192.791 177.737,191.791 177.5,190.5C 178.404,189.791 178.737,188.791 178.5,187.5C 179.404,186.791 179.737,185.791 179.5,184.5C 180.404,183.791 180.737,182.791 180.5,181.5C 181.404,180.791 181.737,179.791 181.5,178.5C 183.267,176.208 184.267,173.542 184.5,170.5C 185.404,169.791 185.737,168.791 185.5,167.5C 186.404,166.791 186.737,165.791 186.5,164.5C 187.404,163.791 187.737,162.791 187.5,161.5C 188.738,159.786 189.405,157.786 189.5,155.5C 191.267,153.208 192.267,150.542 192.5,147.5C 193.404,146.791 193.737,145.791 193.5,144.5C 194.404,143.791 194.737,142.791 194.5,141.5C 195.289,141.217 195.956,140.717 196.5,140C 195.601,138.348 194.601,136.848 193.5,135.5C 193.737,134.209 193.404,133.209 192.5,132.5C 192.737,131.209 192.404,130.209 191.5,129.5C 191.598,127.447 190.931,125.78 189.5,124.5C 189.737,123.209 189.404,122.209 188.5,121.5C 188.737,120.209 188.404,119.209 187.5,118.5C 187.598,116.447 186.931,114.78 185.5,113.5C 185.737,112.209 185.404,111.209 184.5,110.5C 184.737,109.209 184.404,108.209 183.5,107.5C 183.598,105.447 182.931,103.78 181.5,102.5C 181.737,101.209 181.404,100.209 180.5,99.5C 180.737,98.209 180.404,97.209 179.5,96.5C 179.737,95.209 179.404,94.209 178.5,93.5C 178.672,92.5084 178.338,91.8417 177.5,91.5C 177.737,90.209 177.404,89.209 176.5,88.5C 176.737,87.209 176.404,86.209 175.5,85.5C 175.737,84.209 175.404,83.209 174.5,82.5C 174.598,80.4471 173.931,78.7804 172.5,77.5C 172.737,76.209 172.404,75.209 171.5,74.5C 171.405,72.2143 170.738,70.2143 169.5,68.5C 169.672,67.5084 169.338,66.8417 168.5,66.5C 168.737,65.209 168.404,64.209 167.5,63.5C 167.737,62.209 167.404,61.209 166.5,60.5C 166.598,58.4471 165.931,56.7804 164.5,55.5C 164.737,54.209 164.404,53.209 163.5,52.5C 163.737,51.209 163.404,50.209 162.5,49.5C 162.737,48.209 162.404,47.209 161.5,46.5C 161.598,44.4471 160.931,42.7804 159.5,41.5C 159.737,40.209 159.404,39.209 158.5,38.5C 158.737,37.209 158.404,36.209 157.5,35.5C 157.737,34.209 157.404,33.209 156.5,32.5C 156.598,30.4471 155.931,28.7804 154.5,27.5C 154.737,26.209 154.404,25.209 153.5,24.5C 153.737,23.209 153.404,22.209 152.5,21.5C 152.737,20.209 152.404,19.209 151.5,18.5C 151.598,16.4471 150.931,14.7804 149.5,13.5C 149.611,12.8826 149.944,12.3826 150.5,12C 166.163,11.5001 181.83,11.3334 197.5,11.5 Z M 198.5,13.5 C 200.267,15.7916 201.267,18.4582 201.5,21.5C 199.733,19.2084 198.733,16.5418 198.5,13.5 Z M 260.5,16.5 C 260.598,18.5529 259.931,20.2196 258.5,21.5C 258.402,19.4471 259.069,17.7804 260.5,16.5 Z M 303.5,19.5 C 303.598,21.5529 302.931,23.2196 301.5,24.5C 301.402,22.4471 302.069,20.7804 303.5,19.5 Z M 254.5,33.5 C 254.598,35.5529 253.931,37.2196 252.5,38.5C 252.402,36.4471 253.069,34.7804 254.5,33.5 Z M 296.5,38.5 C 296.598,40.5529 295.931,42.2196 294.5,43.5C 294.402,41.4471 295.069,39.7804 296.5,38.5 Z M 209.5,45.5 C 211.601,48.7966 212.935,52.4632 213.5,56.5C 211.399,53.2034 210.065,49.5368 209.5,45.5 Z M 293.5,46.5 C 293.598,48.5529 292.931,50.2196 291.5,51.5C 291.402,49.4471 292.069,47.7804 293.5,46.5 Z M 249.5,47.5 C 249.598,49.5529 248.931,51.2196 247.5,52.5C 247.402,50.4471 248.069,48.7804 249.5,47.5 Z M 290.5,54.5 C 290.598,56.5529 289.931,58.2196 288.5,59.5C 288.402,57.4471 289.069,55.7804 290.5,54.5 Z M 242.5,67.5 C 242.598,69.5529 241.931,71.2196 240.5,72.5C 240.402,70.4471 241.069,68.7804 242.5,67.5 Z M 220.5,77.5 C 222.267,79.7916 223.267,82.4582 223.5,85.5C 221.733,83.2084 220.733,80.5418 220.5,77.5 Z M 280.5,81.5 C 280.598,83.5529 279.931,85.2196 278.5,86.5C 278.402,84.4471 279.069,82.7804 280.5,81.5 Z M 236.5,84.5 C 236.267,87.5418 235.267,90.2084 233.5,92.5C 233.733,89.4582 234.733,86.7916 236.5,84.5 Z M 276.5,92.5 C 276.598,94.5529 275.931,96.2196 274.5,97.5C 274.402,95.4471 275.069,93.7804 276.5,92.5 Z M 228.5,100.5 C 229.167,100.833 229.833,101.167 230.5,101.5C 230.657,102.873 230.49,104.207 230,105.5C 228.991,103.975 228.491,102.308 228.5,100.5 Z M 272.5,103.5 C 272.598,105.553 271.931,107.22 270.5,108.5C 270.402,106.447 271.069,104.78 272.5,103.5 Z M 268.5,114.5 C 268.598,116.553 267.931,118.22 266.5,119.5C 266.402,117.447 267.069,115.78 268.5,114.5 Z M 268.5,159.5 C 269.931,160.78 270.598,162.447 270.5,164.5C 269.069,163.22 268.402,161.553 268.5,159.5 Z M 271.5,167.5 C 272.931,168.78 273.598,170.447 273.5,172.5C 272.069,171.22 271.402,169.553 271.5,167.5 Z M 226.5,177.5 C 224.901,176.201 224.401,174.535 225,172.5C 226.009,174.025 226.509,175.692 226.5,177.5 Z M 274.5,175.5 C 275.931,176.78 276.598,178.447 276.5,180.5C 275.069,179.22 274.402,177.553 274.5,175.5 Z M 228.5,183.5 C 230.601,186.797 231.935,190.463 232.5,194.5C 230.399,191.203 229.065,187.537 228.5,183.5 Z M 277.5,183.5 C 278.931,184.78 279.598,186.447 279.5,188.5C 278.069,187.22 277.402,185.553 277.5,183.5 Z M 281.5,194.5 C 282.931,195.78 283.598,197.447 283.5,199.5C 282.069,198.22 281.402,196.553 281.5,194.5 Z M 284.5,202.5 C 285.931,203.78 286.598,205.447 286.5,207.5C 285.069,206.22 284.402,204.553 284.5,202.5 Z M 239.5,215.5 C 241.601,218.797 242.935,222.463 243.5,226.5C 241.399,223.203 240.065,219.537 239.5,215.5 Z M 291.5,221.5 C 292.931,222.78 293.598,224.447 293.5,226.5C 292.069,225.22 291.402,223.553 291.5,221.5 Z M 207.5,227.5 C 206.943,232.165 205.61,236.498 203.5,240.5C 204.057,235.835 205.39,231.502 207.5,227.5 Z M 294.5,229.5 C 296.267,231.792 297.267,234.458 297.5,237.5C 295.733,235.208 294.733,232.542 294.5,229.5 Z M 298.5,240.5 C 299.931,241.78 300.598,243.447 300.5,245.5C 299.069,244.22 298.402,242.553 298.5,240.5 Z M 302.5,251.5 C 303.931,252.78 304.598,254.447 304.5,256.5C 303.069,255.22 302.402,253.553 302.5,251.5 Z M 252.5,253.5 C 254.481,254.105 254.815,255.105 253.5,256.5C 252.596,255.791 252.263,254.791 252.5,253.5 Z M 198.5,255.5 C 198.277,259.162 197.277,262.495 195.5,265.5C 195.723,261.838 196.723,258.505 198.5,255.5 Z M 306.5,262.5 C 307.931,263.78 308.598,265.447 308.5,267.5C 307.069,266.22 306.402,264.553 306.5,262.5 Z M 308.5,267.5 C 309.124,267.917 309.457,268.584 309.5,269.5C 309.253,270.713 308.586,271.38 307.5,271.5C 308.234,270.292 308.567,268.959 308.5,267.5 Z M 257.5,268.5 C 258.771,270.109 259.771,271.942 260.5,274C 264.841,274.77 269.008,274.27 273,272.5C 275.719,273.444 278.552,273.777 281.5,273.5C 274.358,274.871 267.025,275.371 259.5,275C 258.331,272.993 257.665,270.827 257.5,268.5 Z M 193.5,271.5 C 193.472,274.916 192.472,277.916 190.5,280.5C 190.928,277.215 191.928,274.215 193.5,271.5 Z M 307.5,271.5 C 299.032,272.818 290.365,273.485 281.5,273.5C 289.961,272.085 298.628,271.419 307.5,271.5 Z"/></g>
<g><path style="opacity:0.947" fill="#da202b" d="M 436.5,151.5 C 433.645,153.25 430.311,154.083 426.5,154C 410.164,154.49 393.83,154.99 377.5,155.5C 377.5,178.833 377.5,202.167 377.5,225.5C 400.979,224.056 424.479,222.723 448,221.5C 450.034,221.354 451.701,222.02 453,223.5C 453.667,236.5 453.667,249.5 453,262.5C 452.5,263 452,263.5 451.5,264C 410.479,266.413 369.479,268.746 328.5,271C 369.106,267.553 409.773,264.886 450.5,263C 410.489,263.874 370.823,266.041 331.5,269.5C 330.558,269.392 329.725,269.059 329,268.5C 328.704,182.838 328.537,97.6714 328.5,13C 348.854,11.8379 369.354,11.3379 390,11.5C 410.646,11.3379 431.146,11.8379 451.5,13C 450.534,24.462 450.2,35.7954 450.5,47C 425.15,47.224 399.817,47.724 374.5,48.5C 374.167,70.5101 374.5,92.5101 375.5,114.5C 376.826,92.9348 376.826,71.4348 375.5,50C 400.812,48.4587 426.145,48.1253 451.5,49C 426.836,49.6746 402.169,50.1746 377.5,50.5C 377.333,71.8359 377.5,93.1693 378,114.5C 397.1,113.438 416.267,112.938 435.5,113C 436,113.5 436.5,114 437,114.5C 437.827,127.007 437.66,139.34 436.5,151.5 Z M 434.5,114.5 C 414.522,115.503 394.522,116.003 374.5,116C 393.664,114.962 412.831,114.129 432,113.5C 433.07,113.528 433.903,113.861 434.5,114.5 Z M 435.5,115.5 C 436.495,127.322 436.828,139.322 436.5,151.5C 436.167,151.5 435.833,151.5 435.5,151.5C 435.429,139.679 435.429,127.679 435.5,115.5 Z M 435.5,151.5 C 415.35,153.267 395.016,154.1 374.5,154C 394.815,152.73 415.148,151.896 435.5,151.5 Z M 374.5,155.5 C 375.832,166.814 376.499,178.48 376.5,190.5C 376.167,202.167 375.833,213.833 375.5,225.5C 374.5,202.176 374.167,178.843 374.5,155.5 Z M 448.5,223.5 C 449.779,222.285 450.779,222.618 451.5,224.5C 450.391,224.443 449.391,224.11 448.5,223.5 Z M 448.5,223.5 C 424.002,225.278 399.335,226.444 374.5,227C 399.126,225.017 423.793,223.85 448.5,223.5 Z M 451.5,224.5 C 452.833,236.833 452.833,249.167 451.5,261.5C 450.167,249.167 450.167,236.833 451.5,224.5 Z"/></g>
<g><path style="opacity:0.241" fill="#da202b" d="M 791.5,11.5 C 791.167,93.335 791.501,175.002 792.5,256.5C 792.5,257.167 792.5,257.833 792.5,258.5C 791.883,258.389 791.383,258.056 791,257.5C 790.168,175.332 790.334,93.3323 791.5,11.5 Z"/></g>
<g><path style="opacity:0.965" fill="#da202b" d="M 839.5,257.5 C 838.833,257.5 838.5,257.833 838.5,258.5C 822.956,257.745 807.623,257.078 792.5,256.5C 792.501,175.333 792.501,94.1667 792.5,13C 807.677,11.517 823.011,11.017 838.5,11.5C 838.615,65.5465 838.282,119.38 837.5,173C 838.171,201.167 838.837,229.333 839.5,257.5 Z"/></g>
<g><path style="opacity:0.443" fill="#da202b" d="M 840.5,11.5 C 841.666,93.6657 841.832,175.999 841,258.5C 840.5,259 840,259.5 839.5,260C 823.652,260.463 807.985,259.963 792.5,258.5C 808.011,258.834 823.344,258.834 838.5,258.5C 839.167,258.5 839.5,258.167 839.5,257.5C 840.499,175.668 840.833,93.6684 840.5,11.5 Z"/></g>
<g><path style="opacity:0.436" fill="#da202b" d="M 1013.5,11.5 C 1015.22,34.8366 1017.06,58.17 1019,81.5C 1019.21,83.0581 1019.71,84.3915 1020.5,85.5C 1020.5,86.1667 1020.5,86.8333 1020.5,87.5C 1019.03,86.653 1018.2,85.3197 1018,83.5C 1016.25,61.3265 1014.42,39.1598 1012.5,17C 1012.51,14.9674 1012.84,13.134 1013.5,11.5 Z"/></g>
<g><path style="opacity:0.947" fill="#db202b" d="M 1053.5,85.5 C 1042.5,86.8333 1031.5,86.8333 1020.5,85.5C 1018.58,61.2776 1016.58,37.1109 1014.5,13C 1015.11,12.1301 1015.94,11.6301 1017,11.5C 1031.16,11.0286 1045.32,11.5286 1059.5,13C 1059.13,15.4368 1058.47,18.1035 1057.5,21C 1058.08,21.8926 1058.41,22.8926 1058.5,24C 1056.3,44.6751 1054.63,65.1751 1053.5,85.5 Z"/></g>
<g><path style="opacity:0.369" fill="#da202b" d="M 1060.5,11.5 C 1061.83,12.1667 1061.83,12.1667 1060.5,11.5 Z"/></g>
<g><path style="opacity:0.422" fill="#da202b" d="M 1053.5,85.5 C 1055.99,61.6351 1058.49,37.6351 1061,13.5C 1059.44,38.169 1057.44,62.8357 1055,87.5C 1054.5,88 1054,88.5 1053.5,89C 1048.1,89.7718 1042.76,89.4385 1037.5,88C 1041.89,87.2278 1046.22,87.3945 1050.5,88.5C 1052.21,88.1207 1053.21,87.1207 1053.5,85.5 Z"/></g>
<g><path style="opacity:0.408" fill="#da202b" d="M 1192.5,14.5 C 1199.41,17.4135 1204.74,22.0802 1208.5,28.5C 1207.83,28.1667 1207.17,27.8333 1206.5,27.5C 1205.83,27.5 1205.5,27.1667 1205.5,26.5C 1204.83,26.5 1204.5,26.1667 1204.5,25.5C 1203.83,25.5 1203.5,25.1667 1203.5,24.5C 1202.74,22.7376 1201.4,21.7376 1199.5,21.5C 1198.83,21.5 1198.5,21.1667 1198.5,20.5C 1198.03,19.0937 1197.03,18.427 1195.5,18.5C 1195.03,17.0937 1194.03,16.427 1192.5,16.5C 1192.5,15.8333 1192.5,15.1667 1192.5,14.5 Z"/></g>
<g><path style="opacity:0.33" fill="#da202b" d="M 1108.5,20.5 C 1108.5,20.8333 1108.5,21.1667 1108.5,21.5C 1107.83,21.5 1107.5,21.8333 1107.5,22.5C 1106.83,22.5 1106.5,22.8333 1106.5,23.5C 1104.5,23.5 1103.5,24.5 1103.5,26.5C 1102.83,26.5 1102.5,26.8333 1102.5,27.5C 1101.83,27.5 1101.5,27.8333 1101.5,28.5C 1100.83,28.5 1100.5,28.8333 1100.5,29.5C 1099.09,29.9731 1098.43,30.9731 1098.5,32.5C 1097.09,32.9731 1096.43,33.9731 1096.5,35.5C 1094.75,36.6594 1093.75,38.326 1093.5,40.5C 1092.6,41.209 1092.26,42.209 1092.5,43.5C 1091.66,43.8417 1091.33,44.5084 1091.5,45.5C 1090.6,46.209 1090.26,47.209 1090.5,48.5C 1088.53,53.1825 1087.36,58.1825 1087,63.5C 1086.5,75.1619 1086.33,86.8286 1086.5,98.5C 1085.34,86.6738 1085.17,74.6738 1086,62.5C 1087.17,46.6621 1093.34,33.1621 1104.5,22C 1105.74,21.2086 1107.08,20.7086 1108.5,20.5 Z"/></g>
<g><path style="opacity:0.456" fill="#da202b" d="M 1208.5,28.5 C 1211.74,30.6304 1213.74,33.6304 1214.5,37.5C 1213.83,37.1667 1213.17,36.8333 1212.5,36.5C 1212.57,34.9731 1211.91,33.9731 1210.5,33.5C 1210.57,31.9731 1209.91,30.9731 1208.5,30.5C 1208.5,29.8333 1208.5,29.1667 1208.5,28.5 Z"/></g>
<g><path style="opacity:0.428" fill="#da202b" d="M 1214.5,37.5 C 1217.9,41.8384 1220.07,46.8384 1221,52.5C 1222.61,59.0976 1223.28,65.7642 1223,72.5C 1222.31,64.8617 1220.81,57.5284 1218.5,50.5C 1218.74,49.209 1218.4,48.209 1217.5,47.5C 1217.74,46.209 1217.4,45.209 1216.5,44.5C 1216.67,43.5084 1216.34,42.8417 1215.5,42.5C 1215.37,40.7839 1215.04,39.1172 1214.5,37.5 Z"/></g>
<g><path style="opacity:0.404" fill="#da202b" d="M 1189.5,157.5 C 1189.5,156.833 1189.5,156.167 1189.5,155.5C 1190.17,155.5 1190.5,155.167 1190.5,154.5C 1192.26,153.738 1193.26,152.404 1193.5,150.5C 1194.17,150.5 1194.5,150.167 1194.5,149.5C 1195.17,149.5 1195.5,149.167 1195.5,148.5C 1196.91,148.027 1197.57,147.027 1197.5,145.5C 1198.91,145.027 1199.57,144.027 1199.5,142.5C 1200.17,142.5 1200.5,142.167 1200.5,141.5C 1201.34,141.158 1201.67,140.492 1201.5,139.5C 1202.17,139.5 1202.5,139.167 1202.5,138.5C 1204.25,137.341 1205.25,135.674 1205.5,133.5C 1207.25,132.341 1208.25,130.674 1208.5,128.5C 1209.34,128.158 1209.67,127.492 1209.5,126.5C 1210.34,126.158 1210.67,125.492 1210.5,124.5C 1211.34,124.158 1211.67,123.492 1211.5,122.5C 1212.34,122.158 1212.67,121.492 1212.5,120.5C 1213.34,120.158 1213.67,119.492 1213.5,118.5C 1214.4,117.791 1214.74,116.791 1214.5,115.5C 1215.34,115.158 1215.67,114.492 1215.5,113.5C 1216.4,112.791 1216.74,111.791 1216.5,110.5C 1217.4,109.791 1217.74,108.791 1217.5,107.5C 1218.43,106.432 1218.77,105.099 1218.5,103.5C 1219.43,102.432 1219.77,101.099 1219.5,99.5C 1221.63,91.1062 1222.8,82.4395 1223,73.5C 1223.68,106.435 1212.52,134.435 1189.5,157.5 Z"/></g>
<g><path style="opacity:0.473" fill="#da202b" d="M 1020.5,87.5 C 1025.84,87.334 1031.18,87.5006 1036.5,88C 1030.98,88.8174 1025.65,88.6507 1020.5,87.5 Z"/></g>
<g><path style="opacity:0.612" fill="#da202b" d="M 721.5,93.5 C 736.833,94.8333 752.167,94.8333 767.5,93.5C 760.197,94.8309 752.53,95.4976 744.5,95.5C 736.47,95.4976 728.803,94.8309 721.5,93.5 Z"/></g>
<g><path style="opacity:0.425" fill="#da202b" d="M 181.5,102.5 C 181.402,104.553 182.069,106.22 183.5,107.5C 183.263,108.791 183.596,109.791 184.5,110.5C 184.263,111.791 184.596,112.791 185.5,113.5C 185.402,115.553 186.069,117.22 187.5,118.5C 187.263,119.791 187.596,120.791 188.5,121.5C 188.263,122.791 188.596,123.791 189.5,124.5C 189.402,126.553 190.069,128.22 191.5,129.5C 191.263,130.791 191.596,131.791 192.5,132.5C 192.263,133.791 192.596,134.791 193.5,135.5C 193.833,137.5 194.167,139.5 194.5,141.5C 193.596,142.209 193.263,143.209 193.5,144.5C 192.596,145.209 192.263,146.209 192.5,147.5C 190.733,149.792 189.733,152.458 189.5,155.5C 188.761,155.631 188.094,155.464 187.5,155C 189.304,149.92 191.304,144.92 193.5,140C 188.981,127.793 184.315,115.626 179.5,103.5C 179.957,102.702 180.624,102.369 181.5,102.5 Z"/></g>
<g><path style="opacity:0.346" fill="#da202b" d="M 1375.5,110.5 C 1376.82,115.248 1375.82,119.581 1372.5,123.5C 1372.17,122.833 1371.83,122.167 1371.5,121.5C 1372.34,121.158 1372.67,120.492 1372.5,119.5C 1373.34,119.158 1373.67,118.492 1373.5,117.5C 1374.92,115.485 1375.59,113.152 1375.5,110.5 Z"/></g>
<g><path style="opacity:0.503" fill="#da202b" d="M 702.5,117.5 C 702.167,117.5 701.833,117.5 701.5,117.5C 711.979,116.168 722.812,115.501 734,115.5C 744.833,115.667 755.667,115.833 766.5,116C 744.996,116.168 723.663,116.668 702.5,117.5 Z"/></g>
<g><path style="opacity:0.14" fill="#da202b" d="M 976.5,115.5 C 977.66,127.66 977.827,139.993 977,152.5C 976.617,153.056 976.117,153.389 975.5,153.5C 975.5,152.833 975.5,152.167 975.5,151.5C 976.495,139.678 976.828,127.678 976.5,115.5 Z"/></g>
<g><path style="opacity:0.794" fill="#da202b" d="M 1287.5,162.5 C 1287.5,163.167 1287.5,163.833 1287.5,164.5C 1286.88,164.389 1286.38,164.056 1286,163.5C 1285.33,149.833 1285.33,136.167 1286,122.5C 1286.17,136.006 1286.67,149.34 1287.5,162.5 Z"/></g>
<g><path style="opacity:0.355" fill="#da202b" d="M 116.5,124.5 C 117.117,124.611 117.617,124.944 118,125.5C 118.667,139.167 118.667,152.833 118,166.5C 117.5,167 117,167.5 116.5,168C 96.9199,169.196 77.4199,170.696 58,172.5C 57.5,198.498 57.3334,224.498 57.5,250.5C 80.8119,248.035 104.145,245.702 127.5,243.5C 129.64,243.556 131.306,244.223 132.5,245.5C 132.167,245.5 131.833,245.5 131.5,245.5C 130.551,244.848 129.385,244.514 128,244.5C 104.177,246.999 80.3437,249.332 56.5,251.5C 56.5,224.5 56.5,197.5 56.5,170.5C 76.3584,169.776 96.0251,168.443 115.5,166.5C 116.167,166.5 116.5,166.167 116.5,165.5C 117.833,152.5 117.833,139.5 116.5,126.5C 116.5,125.833 116.5,125.167 116.5,124.5 Z"/></g>
<g><path style="opacity:0.506" fill="#da202b" d="M 591.5,138.5 C 596.683,140.84 600.85,144.507 604,149.5C 608.482,157.947 611.148,166.947 612,176.5C 612.333,197.5 612.667,218.5 613,239.5C 613.568,245.105 615.068,250.438 617.5,255.5C 617.376,256.107 617.043,256.44 616.5,256.5C 615.737,254.632 614.737,252.965 613.5,251.5C 613.768,249.901 613.434,248.568 612.5,247.5C 611.731,224.85 611.231,202.183 611,179.5C 610.881,173.486 609.714,167.819 607.5,162.5C 607.737,161.209 607.404,160.209 606.5,159.5C 606.672,158.508 606.338,157.842 605.5,157.5C 605.771,155.62 605.104,154.287 603.5,153.5C 603.672,152.508 603.338,151.842 602.5,151.5C 602.573,149.973 601.906,148.973 600.5,148.5C 599.833,148.5 599.5,148.167 599.5,147.5C 599.262,145.596 598.262,144.262 596.5,143.5C 596.158,142.662 595.492,142.328 594.5,142.5C 593.833,142.5 593.5,142.167 593.5,141.5C 592.833,141.5 592.5,141.167 592.5,140.5C 592.167,139.833 591.833,139.167 591.5,138.5 Z"/></g>
<g><path style="opacity:0.485" fill="#da202b" d="M 1136.5,149.5 C 1136.17,150.167 1135.83,150.833 1135.5,151.5C 1134.83,151.5 1134.5,151.833 1134.5,152.5C 1133.83,152.5 1133.5,152.833 1133.5,153.5C 1132.83,153.5 1132.5,153.833 1132.5,154.5C 1131.17,155.167 1130.17,156.167 1129.5,157.5C 1128.83,157.5 1128.5,157.833 1128.5,158.5C 1127.83,158.5 1127.5,158.833 1127.5,159.5C 1126.83,159.5 1126.5,159.833 1126.5,160.5C 1125.83,160.5 1125.5,160.833 1125.5,161.5C 1124.83,161.5 1124.5,161.833 1124.5,162.5C 1123.83,162.5 1123.5,162.833 1123.5,163.5C 1122.83,163.5 1122.5,163.833 1122.5,164.5C 1121.83,164.5 1121.5,164.833 1121.5,165.5C 1120.83,165.5 1120.5,165.833 1120.5,166.5C 1119.83,166.5 1119.5,166.833 1119.5,167.5C 1118.83,167.5 1118.5,167.833 1118.5,168.5C 1117.83,168.5 1117.5,168.833 1117.5,169.5C 1116.83,169.5 1116.5,169.833 1116.5,170.5C 1114.74,171.262 1113.74,172.596 1113.5,174.5C 1112.83,174.5 1112.5,174.833 1112.5,175.5C 1111.83,175.5 1111.5,175.833 1111.5,176.5C 1110.83,176.5 1110.5,176.833 1110.5,177.5C 1109.83,177.5 1109.5,177.833 1109.5,178.5C 1108.09,178.973 1107.43,179.973 1107.5,181.5C 1106.83,181.5 1106.5,181.833 1106.5,182.5C 1105.09,182.973 1104.43,183.973 1104.5,185.5C 1103.83,185.5 1103.5,185.833 1103.5,186.5C 1102.66,186.842 1102.33,187.508 1102.5,188.5C 1101.09,188.973 1100.43,189.973 1100.5,191.5C 1099.09,191.973 1098.43,192.973 1098.5,194.5C 1097.66,194.842 1097.33,195.508 1097.5,196.5C 1096.66,196.842 1096.33,197.508 1096.5,198.5C 1095.66,198.842 1095.33,199.508 1095.5,200.5C 1094.66,200.842 1094.33,201.508 1094.5,202.5C 1093.66,202.842 1093.33,203.508 1093.5,204.5C 1092.07,205.78 1091.4,207.447 1091.5,209.5C 1090.08,211.515 1089.41,213.848 1089.5,216.5C 1088.07,219.903 1087.24,223.57 1087,227.5C 1086.5,242.163 1086.33,256.83 1086.5,271.5C 1085.34,256.339 1085.17,241.006 1086,225.5C 1088.99,205.517 1097.33,188.184 1111,173.5C 1114.87,169.966 1118.37,166.133 1121.5,162C 1126.39,157.599 1131.39,153.432 1136.5,149.5 Z"/></g>
<g><path style="opacity:0.424" fill="#da202c" d="M 187.5,161.5 C 186.596,162.209 186.263,163.209 186.5,164.5C 185.596,165.209 185.263,166.209 185.5,167.5C 184.596,168.209 184.263,169.209 184.5,170.5C 182.733,172.792 181.733,175.458 181.5,178.5C 180.596,179.209 180.263,180.209 180.5,181.5C 179.596,182.209 179.263,183.209 179.5,184.5C 178.596,185.209 178.263,186.209 178.5,187.5C 177.596,188.209 177.263,189.209 177.5,190.5C 176.596,191.209 176.263,192.209 176.5,193.5C 174.065,197.799 172.398,202.466 171.5,207.5C 170.596,208.209 170.263,209.209 170.5,210.5C 169.596,211.209 169.263,212.209 169.5,213.5C 168.596,214.209 168.263,215.209 168.5,216.5C 167.596,217.209 167.263,218.209 167.5,219.5C 166.596,220.209 166.263,221.209 166.5,222.5C 165.596,223.209 165.263,224.209 165.5,225.5C 164.596,226.209 164.263,227.209 164.5,228.5C 163.596,229.209 163.263,230.209 163.5,231.5C 162.833,231.833 162.167,232.167 161.5,232.5C 169.529,207.579 177.863,182.746 186.5,158C 186.85,156.743 187.517,156.409 188.5,157C 187.62,158.356 187.286,159.856 187.5,161.5 Z"/></g>
<g><path style="opacity:0.419" fill="#da202b" d="M 1189.5,157.5 C 1187.41,160.771 1185.08,163.937 1182.5,167C 1181.18,167.528 1180.52,167.028 1180.5,165.5C 1181.17,165.5 1181.5,165.167 1181.5,164.5C 1182.17,164.5 1182.5,164.167 1182.5,163.5C 1183.17,163.5 1183.5,163.167 1183.5,162.5C 1184.17,162.5 1184.5,162.167 1184.5,161.5C 1185.17,161.5 1185.5,161.167 1185.5,160.5C 1186.17,160.5 1186.5,160.167 1186.5,159.5C 1187.5,158.833 1188.5,158.167 1189.5,157.5 Z"/></g>
<g><path style="opacity:0.365" fill="#da202b" d="M 1373.5,175.5 C 1374.09,172.917 1374.76,172.917 1375.5,175.5C 1376.4,177.801 1376.56,180.134 1376,182.5C 1375.61,179.896 1374.78,177.562 1373.5,175.5 Z"/></g>
<g><path style="opacity:0.432" fill="#da202b" d="M 1243.5,192.5 C 1244.62,191.844 1245.95,191.511 1247.5,191.5C 1258.33,192.15 1268.99,193.317 1279.5,195C 1267.53,194.4 1255.53,193.567 1243.5,192.5 Z"/></g>
<g><path style="opacity:0.632" fill="#da202b" d="M 1287.5,195.5 C 1285.14,195.663 1282.81,195.497 1280.5,195C 1283.04,194.204 1285.37,194.371 1287.5,195.5 Z"/></g>
<g><path style="opacity:0.474" fill="#da202b" d="M 992.5,226.5 C 993.66,239.327 993.827,252.327 993,265.5C 992.5,266 992,266.5 991.5,267C 950.531,265.035 909.531,263.035 868.5,261C 908.772,261.562 948.938,263.396 989,266.5C 989.995,265.934 990.828,265.267 991.5,264.5C 992.495,252.011 992.829,239.344 992.5,226.5 Z"/></g>
<g><path style="opacity:0.382" fill="#da202b" d="M 161.5,232.5 C 161.833,233.167 162.167,233.833 162.5,234.5C 161.596,235.209 161.263,236.209 161.5,237.5C 160.596,238.209 160.263,239.209 160.5,240.5C 159.596,241.209 159.263,242.209 159.5,243.5C 158.596,244.209 158.263,245.209 158.5,246.5C 157.596,247.209 157.263,248.209 157.5,249.5C 156.596,250.209 156.263,251.209 156.5,252.5C 155.596,253.209 155.263,254.209 155.5,255.5C 154.596,256.209 154.263,257.209 154.5,258.5C 153.596,259.209 153.263,260.209 153.5,261.5C 150.724,267.499 148.724,273.833 147.5,280.5C 146.596,281.209 146.263,282.209 146.5,283.5C 145.167,284.167 145.167,284.833 146.5,285.5C 147.679,287.507 147.179,287.84 145,286.5C 144.333,284.833 144.333,283.167 145,281.5C 150.437,265.021 155.937,248.688 161.5,232.5 Z"/></g>
<g><path style="opacity:0.385" fill="#da202b" d="M 132.5,245.5 C 133.833,259.5 133.833,273.5 132.5,287.5C 132.5,273.5 132.5,259.5 132.5,245.5 Z"/></g>
<g><path style="opacity:0.449" fill="#da202b" d="M 1086.5,271.5 C 1086.83,271.5 1087.17,271.5 1087.5,271.5C 1088.61,272.29 1089.94,272.79 1091.5,273C 1095.82,273.499 1100.15,273.666 1104.5,273.5C 1112.3,274.817 1120.3,275.483 1128.5,275.5C 1157.2,278.399 1186.03,281.399 1215,284.5C 1216.26,284.352 1217.42,284.018 1218.5,283.5C 1217.67,284.748 1216.33,285.415 1214.5,285.5C 1172.89,281.096 1131.22,277.262 1089.5,274C 1087.88,273.764 1086.88,272.931 1086.5,271.5 Z"/></g>
<g><path style="opacity:0.485" fill="#da202b" d="M 190.5,282.5 C 176.74,285.11 162.74,286.61 148.5,287C 162.454,285.038 176.454,283.538 190.5,282.5 Z"/></g>
<g><path style="opacity:0.46" fill="#da202b" d="M 131.5,287.5 C 131.833,287.5 132.167,287.5 132.5,287.5C 132.119,288.931 131.119,289.764 129.5,290C 89.4786,294.836 49.4786,299.503 9.5,304C 11.1667,303.667 12.8333,303.333 14.5,303C 53.6867,298.061 92.6867,292.894 131.5,287.5 Z"/></g>
</svg>
